<svg xmlns="http://www.w3.org/2000/svg" xmlns:xlink="http://www.w3.org/1999/xlink" version="1.1" x="0px" y="0px" viewBox="0 0 24 30" style="enable-background:new 0 0 24 24;" xml:space="preserve"><g><path d="M3.713,6.475h16.574c0.305,0,0.552-0.247,0.552-0.552c0-0.305-0.247-0.552-0.552-0.552H3.713   c-0.305,0-0.552,0.247-0.552,0.552C3.16,6.228,3.408,6.475,3.713,6.475z"/><path d="M3.713,18.63h16.574c0.305,0,0.552-0.247,0.552-0.552s-0.247-0.552-0.552-0.552H3.713c-0.305,0-0.552,0.247-0.552,0.552   S3.408,18.63,3.713,18.63z"/><path d="M3.713,12.552h16.574c0.305,0,0.552-0.247,0.552-0.552s-0.247-0.552-0.552-0.552H3.713c-0.305,0-0.552,0.247-0.552,0.552   S3.408,12.552,3.713,12.552z"/></g><text x="0" y="39" fill="#000000" font-size="5px" font-weight="bold" font-family="'Helvetica Neue', Helvetica, Arial-Unicode, Arial, Sans-serif">Created by AlePio</text><text x="0" y="44" fill="#000000" font-size="5px" font-weight="bold" font-family="'Helvetica Neue', Helvetica, Arial-Unicode, Arial, Sans-serif">from the Noun Project</text></svg>